<?xml version="1.0" standalone="no"?>
<!DOCTYPE svg PUBLIC "-//W3C//DTD SVG 20010904//EN"
 "http://www.w3.org/TR/2001/REC-SVG-20010904/DTD/svg10.dtd">
<svg version="1.0" xmlns="http://www.w3.org/2000/svg"
 width="700.000000pt" height="700.000000pt" viewBox="0 0 700.000000 700.000000"
 preserveAspectRatio="xMidYMid meet">
<metadata>
Created by potrace 1.11, written by Peter Selinger 2001-2013
</metadata>
<g transform="translate(0.000000,700.000000) scale(0.100000,-0.100000)"
fill="#000000" stroke="none">
<path d="M4140 6722 c0 -13 -2 -14 -9 -3 -6 9 -11 10 -15 2 -4 -6 -20 -11 -37
-11 -16 0 -29 -5 -29 -12 0 -6 -3 -9 -6 -5 -4 3 -15 -4 -25 -16 -14 -16 -17
-17 -13 -4 10 27 -5 20 -16 -9 -6 -14 -15 -22 -20 -19 -6 4 -9 1 -8 -6 2 -7
-3 -13 -10 -14 -7 0 -17 -7 -22 -15 -5 -8 -10 -11 -10 -6 0 5 -8 2 -17 -5 -10
-7 -15 -9 -10 -4 10 12 -54 33 -74 24 -9 -5 -21 -3 -27 3 -9 9 -12 9 -12 -1 0
-10 -3 -11 -13 -3 -8 7 -18 7 -27 2 -9 -5 -19 -5 -27 2 -9 7 -13 7 -13 0 0 -6
-11 -9 -25 -6 -14 2 -25 0 -25 -6 0 -5 -7 -10 -15 -10 -8 0 -15 -5 -15 -11 0
-5 -4 -8 -9 -5 -5 3 -15 -2 -22 -12 -13 -15 -12 -16 3 -4 11 9 18 10 23 2 4
-6 3 -10 -2 -9 -14 2 -53 -13 -49 -20 2 -3 -20 -6 -50 -5 -29 0 -51 -2 -49 -6
2 -3 -5 -12 -17 -19 -16 -10 -19 -10 -12 1 6 10 5 11 -8 1 -8 -7 -18 -9 -22
-5 -4 4 -6 0 -4 -8 2 -10 -3 -14 -16 -12 -10 2 -16 0 -13 -5 3 -4 -1 -14 -9
-21 -11 -10 -14 -10 -14 0 0 9 -3 10 -8 2 -6 -10 -44 -26 -67 -29 -5 -1 -18 3
-27 7 -11 5 -18 5 -18 -1 0 -5 -14 -6 -34 -1 -18 4 -41 3 -50 -2 -10 -6 -16
-5 -16 2 0 5 -5 10 -11 10 -5 0 -7 -4 -4 -10 4 -6 -2 -7 -17 -1 -12 4 -36 5
-53 1 -17 -4 -39 -4 -50 0 -11 4 -28 3 -37 -2 -12 -6 -18 -5 -18 2 0 7 -6 8
-18 1 -13 -7 -22 -7 -30 1 -8 8 -15 8 -26 -1 -10 -8 -16 -9 -21 -1 -3 6 -12 7
-18 3 -16 -10 -38 -10 -59 0 -10 4 -18 4 -18 -2 0 -5 -14 -6 -34 -1 -18 4 -41
3 -50 -2 -10 -6 -16 -5 -16 2 0 5 -5 10 -11 10 -5 0 -7 -5 -3 -12 5 -7 3 -8
-6 -3 -19 12 -69 8 -88 -7 -9 -7 -13 -8 -10 -3 4 6 -1 11 -11 11 -13 0 -17 -7
-15 -24 2 -19 0 -21 -12 -11 -12 10 -15 10 -12 -2 2 -8 -3 -13 -9 -11 -7 1
-13 -2 -13 -8 0 -5 -7 -10 -15 -10 -8 0 -15 -5 -15 -11 0 -5 -8 -9 -17 -8 -10
1 -30 -3 -45 -9 -15 -6 -35 -9 -45 -5 -11 4 -14 3 -9 -5 4 -7 3 -12 -3 -12 -6
0 -8 -6 -5 -14 4 -10 -1 -14 -19 -12 -17 2 -24 -1 -20 -10 3 -9 -2 -11 -19 -7
-18 4 -20 2 -9 -5 12 -9 9 -12 -13 -18 -21 -5 -25 -9 -14 -16 9 -7 6 -8 -10
-5 -20 5 -22 3 -10 -11 7 -9 8 -13 2 -9 -7 4 -15 0 -18 -9 -3 -8 -11 -12 -16
-9 -6 4 -17 2 -24 -4 -8 -7 -20 -10 -27 -9 -8 2 -13 -3 -11 -10 2 -10 -2 -10
-17 -2 -16 8 -23 6 -35 -12 -8 -12 -12 -26 -9 -32 4 -6 1 -6 -8 1 -10 8 -19 9
-29 1 -13 -8 -13 -9 1 -5 9 3 16 -1 16 -8 0 -7 -8 -10 -19 -7 -10 2 -18 -1
-18 -7 0 -7 5 -9 12 -5 7 5 8 3 3 -5 -5 -9 -10 -10 -18 -2 -6 6 -15 11 -21 11
-5 0 -7 -3 -3 -6 9 -9 -16 -32 -29 -27 -6 2 -16 -2 -22 -10 -8 -9 -31 -13 -73
-11 -33 1 -58 0 -55 -3 3 -4 0 -13 -7 -21 -8 -11 -8 -14 0 -9 27 16 4 -26 -36
-67 -43 -44 -54 -48 -80 -32 -10 6 -12 5 -7 -2 4 -7 1 -12 -9 -12 -9 0 -14 4
-11 8 2 4 -4 8 -14 8 -12 0 -17 -6 -15 -18 2 -10 0 -16 -5 -13 -4 3 -10 0 -12
-6 -2 -7 -21 -14 -42 -16 -26 -3 -36 0 -31 8 5 8 2 8 -11 1 -23 -11 -103 -10
-123 2 -10 7 -12 6 -6 -4 6 -10 3 -12 -13 -8 -16 5 -20 2 -17 -13 2 -11 -4
-25 -16 -32 -10 -6 -19 -16 -19 -21 0 -5 8 -2 18 7 10 10 21 14 25 11 4 -4 4
3 2 15 -2 12 0 19 5 16 12 -7 5 -40 -8 -40 -6 0 -16 -5 -22 -11 -6 -6 -29 -9
-52 -7 -28 4 -38 2 -34 -6 4 -6 4 -11 -1 -12 -4 0 -19 -2 -32 -5 -14 -2 -28 1
-33 8 -4 7 -8 9 -8 3 0 -5 -11 -11 -26 -11 -23 -2 -24 -1 -7 13 17 13 16 13
-5 3 -12 -6 -27 -8 -33 -4 -8 4 -7 0 0 -15 10 -17 9 -20 -4 -15 -8 4 -22 1
-30 -6 -8 -6 -19 -9 -25 -5 -5 3 -10 0 -10 -8 0 -8 -8 -21 -18 -28 -15 -13
-16 -12 -3 4 8 9 11 20 7 24 -3 3 -6 1 -6 -6 0 -7 -4 -10 -9 -7 -5 4 -8 -5 -6
-19 2 -24 -10 -35 -17 -15 -2 6 -9 1 -16 -11 -10 -15 -10 -19 -1 -14 8 5 10 4
5 -4 -6 -9 -11 -9 -24 1 -14 12 -14 10 -2 -12 12 -23 12 -24 -3 -11 -15 12
-17 11 -17 -4 0 -9 -9 -19 -20 -22 -11 -3 -17 -9 -14 -14 3 -5 -1 -6 -9 -3 -7
2 -23 -3 -33 -13 -11 -10 -15 -15 -9 -11 7 5 12 2 12 -7 0 -7 -3 -14 -6 -13
-20 2 -31 -3 -26 -12 3 -5 0 -7 -8 -4 -8 3 -18 0 -23 -7 -5 -8 -3 -10 6 -4 9
5 11 4 6 -4 -6 -9 -11 -9 -24 1 -13 11 -15 10 -9 -5 5 -13 2 -17 -10 -15 -9 2
-18 -4 -20 -12 -4 -13 -3 -13 7 0 10 13 11 13 7 0 -2 -9 -14 -14 -26 -13 -12
2 -20 -1 -16 -6 3 -5 -4 -12 -15 -16 -11 -3 -20 -11 -20 -16 0 -6 -4 -8 -9 -5
-4 3 -19 -7 -32 -22 -23 -26 -23 -26 -1 -7 18 15 22 16 17 3 -8 -20 -33 -31
-47 -21 -7 3 -8 1 -4 -6 4 -6 2 -19 -6 -28 -11 -14 -11 -16 2 -8 12 7 13 6 3
-6 -7 -9 -11 -25 -8 -37 2 -12 -1 -22 -7 -22 -7 0 -7 -4 0 -13 7 -8 7 -18 2
-27 -8 -13 -11 -13 -22 -1 -8 9 -9 11 -1 7 6 -3 14 -2 17 3 8 13 -24 7 -32 -6
-4 -5 -15 -9 -25 -7 -9 1 -24 -4 -32 -13 -12 -11 -15 -11 -15 -1 0 9 -3 9 -8
2 -4 -6 -14 -10 -23 -9 -12 2 -15 -6 -14 -39 1 -22 -2 -49 -7 -60 -7 -13 -7
-16 1 -12 6 4 11 0 11 -9 0 -10 -5 -13 -12 -9 -9 5 -9 2 1 -9 12 -15 11 -17
-5 -17 -16 0 -16 -2 -4 -10 12 -8 11 -13 -8 -33 -22 -23 -57 -34 -45 -13 4 6
0 5 -9 -1 -8 -7 -18 -10 -21 -6 -4 3 -7 -1 -7 -9 0 -11 -6 -14 -20 -11 -12 3
-20 0 -20 -6 0 -7 4 -10 9 -6 5 3 13 1 16 -5 4 -6 1 -9 -7 -8 -7 2 -12 -2 -11
-9 2 -7 -4 -10 -12 -7 -8 4 -12 11 -8 17 4 6 1 7 -6 2 -9 -5 -10 -10 -2 -18
12 -12 -33 -67 -56 -67 -7 0 -13 -5 -13 -11 0 -5 -4 -8 -9 -4 -5 3 -13 1 -16
-5 -4 -6 -1 -9 6 -8 18 4 17 -54 -1 -70 -11 -10 -11 -11 -1 -6 10 5 12 3 7 -5
-5 -7 -14 -10 -21 -7 -8 3 -19 -2 -25 -10 -7 -8 -9 -14 -4 -14 5 0 2 -5 -6
-10 -8 -5 -10 -10 -5 -10 6 0 10 -11 10 -25 0 -14 -4 -25 -9 -25 -5 0 -2 -8 5
-17 12 -14 12 -16 0 -8 -11 6 -13 4 -7 -11 4 -10 4 -15 0 -12 -16 16 -47 -33
-49 -76 0 -25 -5 -49 -10 -53 -4 -4 -5 -1 -1 7 4 8 0 6 -8 -4 -12 -15 -16 -16
-16 -5 0 12 -2 12 -10 -1 -14 -22 -12 -124 2 -138 10 -10 10 -15 -1 -21 -10
-6 -10 -10 -2 -16 9 -5 9 -11 -1 -23 -10 -12 -10 -14 0 -8 6 4 12 2 12 -3 0
-6 -4 -11 -8 -11 -4 0 -9 -18 -10 -40 -2 -25 2 -40 9 -40 9 0 9 -3 0 -14 -7
-8 -8 -17 -4 -19 11 -7 10 -328 -2 -346 -5 -10 -4 -12 3 -7 7 4 12 2 12 -3 0
-6 -3 -11 -8 -11 -12 0 -12 -83 0 -98 9 -10 8 -16 -1 -22 -10 -5 -10 -9 -2
-15 9 -5 9 -11 -1 -23 -11 -13 -11 -14 1 -7 14 8 14 9 -3 -63 -3 -15 0 -25 9
-29 8 -3 12 -10 9 -17 -3 -6 1 -3 9 7 13 16 15 16 21 2 4 -11 2 -14 -7 -10 -6
4 -5 1 4 -7 19 -16 33 -62 16 -51 -9 5 -9 3 -1 -8 13 -18 16 -61 3 -54 -16 10
-10 -1 17 -31 15 -16 23 -23 19 -15 -6 10 -4 12 4 7 7 -5 10 -15 7 -23 -3 -8
-1 -11 4 -8 6 3 10 1 10 -6 0 -8 4 -8 16 1 8 8 14 9 13 4 -4 -21 2 -28 11 -14
8 11 9 8 6 -12 -3 -15 -8 -33 -12 -39 -4 -8 -3 -9 5 -5 12 8 9 -33 -5 -55 -4
-8 -3 -9 4 -5 14 9 11 -66 -3 -76 -6 -5 -6 -8 1 -8 12 0 13 -44 1 -56 -3 -4 7
-21 23 -37 17 -17 30 -36 30 -41 0 -6 5 -4 10 4 18 27 25 -5 24 -104 0 -56 3
-96 9 -96 5 0 4 -7 -3 -15 -9 -11 -9 -15 -1 -15 7 0 9 -5 5 -12 -4 -7 -3 -8 5
-4 6 4 9 11 7 15 -3 4 0 8 7 8 8 0 12 -19 12 -54 0 -29 -4 -53 -9 -53 -5 0 -3
-7 4 -15 6 -8 8 -20 4 -26 -5 -9 -11 -7 -21 7 -11 14 -14 15 -13 4 4 -30 0
-41 -12 -34 -10 6 -10 4 -3 -7 6 -8 10 -41 9 -74 -1 -58 0 -62 42 -107 24 -26
44 -51 44 -55 0 -4 -7 1 -15 11 -8 11 -15 15 -15 8 0 -6 10 -18 22 -26 23 -16
33 -46 16 -46 -6 0 -5 -6 2 -15 7 -8 9 -15 6 -15 -4 0 -1 -10 6 -22 14 -28 18
-129 4 -120 -12 7 34 -61 48 -70 8 -5 12 -19 20 -83 1 -11 -3 -26 -8 -34 -8
-11 -8 -13 1 -8 14 9 13 -44 -1 -55 -6 -4 -6 -12 1 -20 14 -17 24 -60 12 -52
-5 3 -6 -2 -3 -10 3 -9 14 -16 23 -17 12 0 12 -2 -4 -9 -17 -7 -17 -9 -2 -9 9
-1 17 -6 17 -13 0 -6 3 -9 6 -5 4 3 13 -1 21 -9 8 -8 18 -12 23 -9 5 3 12 0
16 -6 4 -7 3 -9 -4 -5 -6 3 -14 1 -18 -6 -4 -7 -4 -10 1 -6 10 10 65 -19 65
-35 0 -8 4 -7 11 3 9 12 10 11 6 -6 -3 -13 1 -21 9 -21 7 0 11 4 8 9 -3 4 -3
8 1 8 6 0 29 -51 27 -61 -1 -4 9 -5 21 -2 18 4 19 3 7 -6 -12 -9 -9 -11 15
-12 26 0 27 -2 10 -9 -17 -7 -17 -9 -2 -9 9 -1 17 -6 17 -12 0 -5 5 -7 12 -3
8 5 9 0 5 -15 -4 -17 -3 -20 8 -11 9 8 14 7 19 -5 3 -8 13 -15 21 -15 9 0 14
-4 11 -8 -3 -5 0 -9 7 -10 23 -2 46 -8 52 -14 3 -3 22 -2 41 2 19 4 36 5 39 1
3 -6 50 -7 50 -1 0 7 47 5 52 -3 3 -5 9 -3 14 4 5 8 9 10 9 4 0 -11 56 -12 67
-2 3 4 15 7 25 7 10 0 18 7 18 15 0 8 5 15 11 15 5 0 7 -4 4 -10 -3 -5 -1 -10
4 -10 6 0 11 6 11 13 0 7 14 18 30 24 19 7 30 8 30 1 0 -5 7 -3 15 6 9 8 22
13 30 10 8 -4 15 -1 15 7 0 7 3 10 6 6 4 -3 14 2 23 11 9 10 12 13 8 6 -5 -7
-3 -15 4 -20 7 -4 9 -3 6 3 -8 13 27 45 38 36 5 -5 3 1 -5 11 -14 18 -13 19 8
14 12 -4 20 -3 17 2 -7 12 26 22 39 11 7 -6 23 3 46 27 19 20 25 28 13 18 -13
-11 -23 -15 -23 -10 0 5 17 20 36 32 27 18 39 21 44 12 6 -9 10 -6 15 9 3 11
11 21 16 21 5 0 9 11 9 24 0 14 9 31 21 39 14 11 17 16 7 19 -10 4 -9 9 4 25
14 15 15 22 5 33 -7 8 -8 11 -1 7 7 -4 15 0 18 9 4 10 2 13 -6 8 -7 -5 -8 -3
-4 5 5 7 15 10 23 7 8 -3 11 -1 8 4 -7 12 35 31 49 22 5 -3 6 0 3 5 -4 6 -1
13 6 15 18 7 38 -2 31 -14 -4 -6 2 -5 15 1 15 8 21 8 21 1 0 -6 6 -10 13 -9
26 3 38 -1 31 -13 -5 -8 -2 -9 11 -4 15 5 16 4 6 -8 -8 -10 -9 -16 -1 -21 6
-3 7 -11 4 -17 -4 -7 -2 -8 5 -4 8 6 9 12 2 20 -8 9 -7 13 3 13 9 0 13 -8 10
-23 -2 -13 0 -26 6 -29 6 -4 8 -10 5 -15 -3 -5 0 -12 6 -16 8 -4 9 -3 5 4 -4
7 -1 12 6 12 8 0 14 -9 15 -20 1 -13 -3 -18 -10 -14 -7 3 -2 -3 10 -14 23 -20
32 -39 13 -27 -6 3 -7 -1 -4 -9 4 -10 1 -16 -7 -16 -9 -1 -8 -4 4 -11 13 -8
22 -7 33 1 10 9 14 9 14 1 0 -6 8 -10 18 -9 34 3 53 -2 47 -12 -3 -5 1 -10 9
-10 10 0 13 -6 9 -17 -6 -16 -5 -17 12 -3 17 14 18 14 6 -8 -6 -12 -10 -22 -9
-23 24 -6 37 -5 32 2 -3 5 -10 6 -16 3 -7 -4 -8 -2 -4 5 10 15 36 -4 36 -26 0
-10 6 -13 16 -9 8 3 12 2 9 -4 -3 -6 -1 -10 4 -10 6 0 11 6 11 13 0 6 6 3 12
-8 7 -11 10 -22 9 -23 -2 -2 9 -17 24 -32 15 -15 27 -31 26 -34 -3 -17 0 -19
10 -6 8 12 10 12 8 -5 -2 -32 12 -69 22 -54 4 8 1 17 -8 24 -14 10 -14 13 -2
20 8 5 11 5 7 1 -4 -4 9 -22 28 -38 19 -17 32 -33 29 -36 -3 -3 3 -15 12 -26
17 -20 17 -20 1 -7 -24 18 -23 9 2 -19 11 -13 20 -20 20 -15 0 4 8 1 17 -6 9
-8 14 -9 10 -3 -9 15 28 11 47 -5 9 -8 16 -19 16 -25 -1 -6 -10 0 -20 13 -11
13 -20 19 -20 15 1 -5 12 -22 26 -39 15 -16 23 -23 19 -15 -7 13 -6 13 6 1 11
-10 11 -15 2 -18 -18 -6 -16 -20 3 -27 8 -3 13 -2 9 3 -8 14 20 7 39 -9 10 -7
15 -19 12 -26 -3 -7 0 -16 6 -20 6 -4 8 -3 4 4 -3 6 -2 13 3 16 10 7 9 -13 -2
-31 -4 -6 -2 -15 4 -19 8 -4 9 -3 5 4 -4 7 -5 12 -2 12 3 0 10 -9 16 -21 9
-15 8 -24 -1 -35 -7 -8 -8 -14 -3 -13 23 4 36 -2 30 -16 -3 -8 0 -14 7 -12 7
1 11 -4 9 -12 -2 -8 3 -11 12 -8 10 4 13 1 10 -8 -3 -8 4 -20 15 -27 12 -7 21
-21 21 -30 0 -11 5 -15 15 -12 11 5 13 2 8 -12 -4 -12 -3 -15 5 -10 7 4 12 2
12 -4 0 -6 5 -8 10 -5 6 3 10 0 10 -8 0 -7 12 -19 26 -26 17 -7 24 -17 20 -26
-3 -8 -2 -15 2 -15 5 0 17 -7 28 -16 10 -8 12 -13 4 -9 -10 4 -9 2 3 -8 9 -8
17 -22 17 -32 0 -9 9 -19 20 -22 11 -3 20 -9 20 -14 0 -5 11 -14 25 -21 13 -6
22 -15 19 -20 -3 -5 7 -21 22 -36 15 -15 24 -21 20 -14 -4 6 -2 12 3 12 10 0
15 -14 12 -33 -1 -5 3 -6 9 -2 5 3 10 -2 10 -12 0 -15 2 -16 10 -3 8 13 10 12
10 -3 0 -10 4 -15 10 -12 5 3 10 -1 10 -10 0 -9 4 -14 9 -10 5 3 13 0 17 -6 4
-7 3 -9 -4 -5 -6 3 -13 2 -17 -4 -3 -5 0 -10 8 -10 21 0 50 -37 41 -51 -5 -9
-2 -10 12 -5 15 5 16 4 7 -5 -9 -9 -7 -19 7 -44 10 -18 18 -35 17 -37 -1 -2 4
3 11 11 10 13 12 13 12 -2 0 -9 3 -16 8 -16 4 1 9 1 12 -1 3 -1 16 -3 30 -5
45 -8 55 -10 68 -18 7 -5 12 -3 12 4 0 8 4 9 13 0 10 -8 17 -7 25 1 9 9 12 9
12 0 0 -7 11 -12 24 -12 14 0 28 -4 31 -10 4 -6 -1 -7 -12 -3 -10 3 -15 2 -10
-2 4 -5 34 -10 67 -11 33 -1 64 -5 70 -9 5 -3 10 -3 10 2 0 4 11 8 25 8 14 0
25 -4 25 -8 0 -5 4 -6 9 -3 5 3 26 8 47 11 21 2 41 10 46 17 6 10 8 10 8 1 0
-7 4 -13 10 -13 5 0 7 8 3 18 -3 9 -3 14 1 10 5 -4 19 -3 32 2 15 6 26 6 30
-1 4 -7 10 -6 19 1 10 8 15 8 20 0 5 -8 10 -8 20 0 10 8 15 8 20 0 5 -7 11 -8
19 -1 7 6 18 6 26 1 7 -4 24 -4 36 0 14 6 26 5 29 0 3 -5 18 -5 35 0 18 5 32
5 35 -1 4 -5 13 -5 23 0 9 4 29 8 44 7 22 -1 25 1 18 15 -7 13 -5 16 13 15 13
-1 21 4 19 12 -1 8 7 16 19 19 11 3 16 9 10 12 -6 4 -2 12 10 20 17 10 20 10
14 -1 -3 -7 0 -5 9 6 8 10 19 15 25 11 6 -3 11 -1 11 4 0 6 9 11 19 11 11 0
23 5 26 11 4 6 13 8 21 5 8 -3 14 -1 14 5 0 6 4 8 9 4 5 -3 13 0 17 6 4 8 3 9
-4 5 -7 -4 -12 -3 -12 3 0 6 11 13 25 17 14 3 25 10 25 16 0 5 -5 6 -12 2 -7
-5 -8 -3 -4 5 5 7 14 10 22 7 7 -3 16 -1 19 4 4 6 1 10 -5 10 -6 0 -9 4 -5 9
3 6 15 8 26 6 17 -4 19 -2 9 10 -10 12 -9 15 4 15 9 0 16 5 16 11 0 5 5 7 12
3 7 -5 8 -3 4 5 -5 8 0 14 14 18 16 4 18 8 8 14 -9 6 -7 9 9 9 16 0 25 8 29
26 4 16 9 22 14 14 5 -8 9 -4 13 9 3 12 11 20 19 19 8 -2 13 6 12 19 -1 19 2
21 17 13 15 -8 17 -7 14 10 -2 11 0 22 6 25 5 4 9 1 9 -5 0 -6 4 -9 10 -5 5 3
7 12 4 19 -3 8 0 17 7 22 8 4 10 3 5 -4 -4 -7 -3 -12 2 -12 5 0 12 9 15 20 3
11 9 20 14 19 20 -4 24 2 12 18 -12 15 -12 16 4 10 13 -5 17 -1 17 19 0 14 4
23 9 19 5 -3 13 0 17 6 4 7 3 9 -3 6 -6 -4 -14 0 -17 9 -3 8 -2 12 4 9 6 -3
10 -1 10 5 0 6 5 8 13 4 7 -5 6 0 -3 11 -9 11 -10 16 -2 11 7 -4 12 -2 12 4 0
6 5 8 10 5 6 -4 9 -1 8 7 -2 7 3 12 10 11 10 -3 16 14 14 38 -1 3 6 6 13 6 12
0 12 -4 3 -16 -7 -9 6 2 28 24 21 22 36 42 31 43 -14 7 4 21 18 15 10 -3 15 1
15 11 0 14 4 15 20 6 16 -9 20 -8 20 5 0 9 4 13 10 10 13 -8 44 15 48 35 2 12
0 12 -11 -2 -11 -14 -13 -11 -13 27 1 24 4 41 8 38 5 -2 8 3 8 12 0 10 -5 13
-12 9 -7 -4 -2 4 12 18 14 13 30 22 35 19 6 -2 1 6 -10 19 -11 13 -14 20 -6
15 10 -6 12 -4 5 6 -13 21 -14 39 -1 39 5 0 7 3 4 7 -4 3 -1 13 6 21 10 13 9
15 -3 8 -8 -4 -6 0 4 8 11 9 15 16 9 16 -6 0 -14 7 -17 16 -3 8 -2 13 3 10 5
-3 12 2 15 11 4 9 2 20 -5 23 -7 5 -3 13 12 23 12 9 27 13 32 10 6 -3 7 -1 3
5 -4 6 -14 8 -23 5 -11 -5 -10 0 6 16 12 12 19 26 16 31 -4 6 -1 10 5 10 6 0
9 4 5 9 -3 5 0 13 6 16 5 4 8 13 5 21 -3 8 5 21 19 30 14 9 23 20 20 24 -3 5
-1 11 5 15 6 4 7 12 3 18 -14 23 -8 62 12 82 11 11 21 31 23 44 1 12 10 30 20
39 10 10 11 13 2 7 -13 -9 -13 -8 -1 8 7 9 20 17 28 17 8 0 11 5 7 12 -5 8 -2
9 10 5 14 -6 17 -3 12 8 -3 9 -2 13 4 10 6 -3 10 -2 10 4 0 6 7 7 17 4 11 -4
14 -3 9 6 -6 9 0 10 21 5 27 -6 27 -6 8 10 -14 11 -15 15 -5 14 8 -2 14 3 12
10 -1 8 2 11 8 7 6 -3 7 -11 4 -17 -4 -7 -2 -8 5 -4 7 4 11 15 9 24 -2 9 7 27
19 40 13 14 20 28 17 33 -3 5 1 6 9 3 8 -3 20 2 27 11 10 12 10 18 -1 32 -12
14 -12 16 0 8 10 -6 12 -4 6 6 -13 20 -13 49 -2 42 6 -4 8 0 4 9 -3 9 0 21 6
28 9 10 9 11 -3 5 -13 -8 -13 -6 -1 8 7 9 17 15 21 12 5 -3 11 4 15 15 4 11
10 18 14 15 5 -2 8 24 7 58 -1 58 1 64 33 97 35 35 56 42 78 27 6 -4 14 -4 17
2 4 5 15 8 26 6 11 -2 22 0 25 5 3 5 -3 7 -15 5 -11 -2 -22 0 -24 4 -3 4 14 7
37 6 48 -2 69 3 62 15 -7 11 22 6 32 -5 4 -4 2 -5 -6 0 -10 5 -12 4 -7 -4 10
-16 25 -4 21 17 -2 12 3 18 15 18 11 0 16 -5 12 -11 -4 -6 0 -3 9 7 9 9 20 14
24 10 3 -4 5 0 3 8 -2 9 4 14 14 14 10 -1 14 4 11 13 -4 11 -10 10 -29 -8 -12
-11 -29 -19 -36 -16 -8 4 -7 6 5 6 11 1 15 6 11 13 -4 7 -3 8 5 4 6 -4 14 -1
17 8 3 8 14 14 24 13 10 -1 16 -5 13 -11 -4 -5 -1 -6 8 -1 20 13 49 13 49 1 0
-6 4 -5 9 2 9 16 20 15 40 -1 8 -7 12 -7 9 -2 -4 6 2 11 12 12 27 2 33 -12 14
-32 -16 -15 -16 -16 2 -13 11 2 18 -2 17 -9 -2 -7 4 -10 12 -6 14 5 13 7 -1
18 -14 10 -15 13 -3 20 8 5 11 5 7 1 -4 -5 5 -19 20 -33 15 -13 21 -22 15 -18
-7 3 -13 1 -13 -4 0 -6 8 -11 18 -11 10 0 19 -6 19 -14 0 -8 -7 -12 -16 -9
-12 3 -12 2 2 -7 19 -12 24 -35 5 -24 -10 6 -10 4 -3 -7 6 -8 10 -33 9 -57 -1
-33 2 -42 13 -38 8 3 11 2 8 -3 -3 -5 0 -11 7 -14 7 -2 5 -3 -4 -2 -10 2 -21
-2 -25 -7 -3 -7 -1 -8 5 -4 11 7 17 -6 13 -27 -1 -5 3 -6 9 -2 6 3 7 11 4 17
-4 6 -2 8 4 4 11 -7 9 -37 -4 -58 -4 -6 -3 -8 4 -4 7 4 10 -1 9 -14 -1 -11 -5
-20 -10 -20 -5 0 1 -9 14 -21 13 -11 18 -18 12 -14 -9 4 -11 1 -7 -10 4 -9 13
-14 20 -11 7 3 16 1 19 -4 3 -5 13 -6 22 -3 12 5 14 3 8 -8 -8 -12 -6 -12 8
-1 13 12 20 11 37 -1 15 -11 18 -16 8 -20 -11 -4 -10 -7 1 -18 8 -8 11 -9 8
-3 -3 6 0 11 8 11 11 0 12 -5 3 -21 -10 -19 -10 -20 5 -7 9 7 24 11 32 7 8 -3
15 -2 15 2 0 8 225 6 238 -2 5 -3 12 -2 16 1 3 4 23 7 43 8 23 0 38 6 41 15 3
13 2 13 -8 0 -10 -13 -11 -13 -7 0 2 8 11 15 20 15 8 0 19 4 23 8 4 4 2 7 -5
7 -7 0 -10 4 -6 10 3 5 12 7 21 3 8 -3 14 -2 12 3 -4 16 13 54 24 54 13 0 88
79 88 92 0 5 -5 6 -12 2 -7 -5 -8 -3 -4 5 5 7 15 10 23 7 8 -3 11 -1 8 4 -3 6
0 10 7 10 9 0 9 3 -2 10 -13 8 -12 10 3 10 19 0 37 37 33 66 -2 11 1 27 6 37
6 12 6 23 -2 32 -8 10 -8 15 1 21 8 4 9 3 5 -4 -4 -7 -3 -12 2 -12 18 0 20 60
3 70 -11 6 -12 9 -3 10 7 0 10 5 7 10 -4 6 -9 8 -13 6 -4 -2 -7 6 -7 19 0 13
2 22 4 20 1 -2 13 8 26 23 16 19 20 31 13 39 -7 9 -4 11 12 8 13 -2 20 -2 17
1 -3 3 -1 19 3 35 7 23 5 31 -6 36 -10 4 -11 9 -4 18 5 6 7 15 3 18 -10 11
-10 56 1 50 5 -4 6 1 2 12 -5 15 -4 16 8 6 22 -18 24 1572 2 1594 -7 8 -16 11
-20 8 -3 -4 -6 1 -6 11 0 9 -4 14 -10 11 -5 -3 -10 1 -10 9 0 9 -4 16 -10 16
-5 0 -10 8 -11 18 0 14 -2 14 -9 -3 -8 -18 -9 -17 -9 8 -1 16 -5 26 -11 22 -5
-3 -10 -1 -10 5 0 6 -5 8 -12 4 -8 -5 -9 -2 -5 10 4 10 3 15 -3 11 -6 -3 -13
1 -16 9 -3 9 -11 13 -17 9 -6 -4 -8 0 -4 10 3 9 0 18 -9 21 -8 3 -14 0 -14 -6
0 -6 -3 -8 -6 -5 -4 4 -1 13 5 21 10 12 8 14 -11 9 -18 -4 -20 -3 -8 6 12 9 9
11 -15 12 -26 0 -27 2 -10 9 13 6 15 9 5 9 -8 1 -21 10 -28 21 -7 12 -16 19
-21 16 -4 -3 -14 6 -22 20 -12 23 -14 24 -20 7 -7 -16 -8 -17 -8 0 -1 9 -8 17
-16 17 -9 0 -12 6 -8 17 4 11 3 14 -5 9 -7 -4 -12 -2 -12 4 0 6 -5 8 -12 4 -8
-5 -9 0 -6 14 4 12 2 25 -3 28 -5 3 -9 2 -8 -3 4 -25 -4 -24 -17 2 -8 17 -12
21 -9 10 5 -20 5 -20 -10 -1 -8 11 -15 24 -15 29 0 4 -5 5 -12 1 -7 -5 -9 -2
-5 8 3 9 0 21 -6 27 -14 14 -30 14 -21 -1 4 -7 3 -8 -4 -4 -7 4 -12 16 -12 26
0 10 -4 21 -9 24 -5 4 -7 -4 -5 -16 4 -21 4 -21 -5 -3 -4 11 -6 24 -3 29 2 4
-2 12 -9 17 -11 7 -11 9 -1 9 7 0 10 5 7 11 -10 16 -12 79 -2 79 4 0 3 10 -4
21 -15 30 -28 129 -16 129 5 0 4 6 -2 13 -6 8 -8 16 -6 19 3 3 8 15 10 28 4
19 2 20 -12 8 -12 -9 -15 -9 -9 0 4 7 2 12 -6 12 -11 0 -11 2 0 9 10 6 9 11
-4 22 -10 8 -15 9 -11 2 4 -6 3 -14 -2 -17 -5 -4 -7 7 -5 23 4 21 -1 35 -18
52 -13 12 -16 18 -8 14 8 -4 5 2 -7 14 -12 11 -29 21 -38 21 -8 0 -15 5 -15
11 0 5 -5 7 -12 3 -7 -5 -9 -2 -5 9 4 12 2 14 -10 10 -12 -5 -14 -3 -8 7 6 10
4 12 -10 7 -14 -6 -16 -3 -12 13 3 11 1 17 -4 14 -5 -3 -12 1 -15 10 -3 9 -12
12 -21 9 -10 -4 -14 -2 -10 4 4 6 0 14 -9 17 -8 3 -12 10 -9 16 4 6 -1 7 -11
3 -12 -4 -15 -3 -10 5 4 7 2 12 -3 12 -6 0 -11 7 -11 16 0 8 -4 13 -9 10 -5
-4 -14 6 -19 21 -7 18 -11 22 -11 11 -1 -10 -6 -18 -11 -18 -6 0 -9 3 -9 8 3
19 -2 33 -10 27 -6 -3 -8 4 -6 15 2 12 0 18 -6 15 -5 -4 -14 7 -20 23 -6 18
-17 29 -27 28 -9 0 -22 11 -30 26 -7 16 -22 33 -33 38 -11 6 -17 15 -14 20 4
6 -1 7 -11 3 -12 -4 -15 -3 -10 5 9 15 -18 55 -30 44 -4 -4 -2 2 6 12 8 11 10
17 3 13 -7 -5 -16 1 -23 12 -7 13 -7 22 0 26 6 3 -3 17 -20 32 -17 13 -28 28
-25 33 7 11 -20 32 -29 23 -4 -4 -4 1 0 11 5 14 4 17 -4 12 -7 -4 -12 -2 -12
3 0 6 -5 11 -11 11 -5 0 -7 -6 -3 -12 4 -8 3 -10 -2 -5 -5 5 -9 14 -9 20 0 7
-8 11 -17 11 -10 -1 -14 4 -11 13 3 8 0 13 -8 11 -8 -2 -13 2 -12 9 2 8 -4 10
-15 6 -14 -6 -15 -4 -4 9 10 13 10 18 1 24 -7 4 -9 3 -6 -3 4 -6 0 -13 -8 -17
-8 -3 -14 -2 -12 2 1 4 -1 7 -4 7 -3 0 -13 6 -22 14 -12 9 -17 10 -17 2 0 -9
-5 -9 -20 -1 -15 8 -20 8 -20 -1 0 -9 -3 -9 -14 0 -7 6 -22 9 -32 5 -15 -5
-16 -4 -5 4 12 9 10 12 -11 17 -15 4 -29 13 -32 21 -3 8 -10 14 -16 14 -6 0
-8 -6 -4 -12 4 -7 -7 0 -24 16 -39 36 -43 49 -4 15 l27 -24 -23 26 c-22 26
-43 31 -58 16 -12 -12 -26 -8 -18 5 5 7 2 9 -9 5 -12 -4 -14 -2 -10 10 5 12 2
15 -10 10 -9 -3 -17 -2 -17 4 0 6 -5 7 -12 3 -7 -4 -8 -3 -4 5 4 6 13 8 19 4
8 -4 8 -1 -1 9 -7 9 -29 19 -50 23 -20 4 -48 16 -61 28 -13 12 -21 16 -17 10
4 -7 2 -13 -3 -13 -6 0 -11 10 -11 23 0 12 -4 18 -8 12 -9 -13 -35 -19 -28 -6
4 5 2 12 -3 15 -5 4 -13 2 -16 -4 -5 -8 -11 -8 -20 0 -10 8 -15 8 -20 0 -5 -8
-10 -8 -20 0 -7 6 -16 7 -19 2 -4 -7 -51 -9 -51 -2 0 7 -36 6 -41 -1 -4 -6
-11 -6 -19 1 -10 8 -15 8 -20 0 -5 -8 -10 -8 -20 0 -9 8 -15 8 -20 0 -4 -7
-12 -7 -25 0 -11 6 -20 6 -22 1 -2 -5 -19 0 -38 10 -19 11 -26 17 -15 14 12
-4 6 6 -18 25 -20 18 -35 35 -33 39 3 4 -2 8 -10 8 -11 0 -8 -7 8 -26 l23 -25
-31 25 c-17 13 -29 28 -26 33 3 5 -2 7 -11 3 -9 -3 -16 -3 -16 1 1 4 1 14 0
22 -1 13 -2 13 -11 0 -8 -12 -10 -12 -16 3 -5 13 -10 15 -19 7 -7 -6 -16 -7
-18 -3 -3 5 -22 8 -41 8 -20 -1 -36 2 -36 5 0 4 -18 7 -40 6 -22 -1 -40 1 -40
5 0 4 -11 6 -25 5 -13 -2 -22 1 -19 5 3 5 2 9 -3 10 -29 3 -47 9 -54 20 -5 9
-39 14 -98 16 -80 2 -91 0 -91 -15z m1065 -252 c3 -5 1 -10 -4 -10 -6 0 -11 5
-11 10 0 6 2 10 4 10 3 0 8 -4 11 -10z m1120 -931 c11 -16 1 -19 -13 -3 -7 8
-8 14 -3 14 5 0 13 -5 16 -11z m-6185 -815 c0 -8 -5 -12 -10 -9 -6 4 -8 11 -5
16 9 14 15 11 15 -7z m58 -1691 c-3 -16 14 -42 25 -39 7 1 9 1 4 -1 -4 -3 -4
-10 -1 -16 4 -7 -6 2 -22 18 -18 18 -25 33 -19 37 13 10 15 10 13 1z m6742
-266 c0 -2 -9 -12 -19 -21 -14 -13 -21 -14 -27 -5 -4 7 -3 10 3 6 6 -4 16 0
23 8 12 14 20 19 20 12z m-6649 -355 c-7 -2 -18 1 -23 6 -8 8 -4 9 13 5 13 -4
18 -8 10 -11z m24 -30 c-3 -3 -11 0 -18 7 -9 10 -8 11 6 5 10 -3 15 -9 12 -12z
m6498 -17 c-3 -9 -8 -14 -10 -11 -3 3 -2 9 2 15 9 16 15 13 8 -4z m-35 -35
c-7 -11 -17 -20 -22 -20 -5 0 -1 9 9 20 10 11 20 20 22 20 2 0 -2 -9 -9 -20z
m-588 -75 c14 -18 13 -19 -1 -8 -9 7 -19 10 -23 6 -4 -4 -4 1 0 10 3 10 7 17
8 15 1 -2 8 -12 16 -23z m-1350 -1099 c0 -2 -8 -10 -17 -17 -16 -13 -17 -12
-4 4 13 16 21 21 21 13z m-1891 -459 c0 -9 -2 -8 -6 1 -2 6 -10 9 -15 6 -7 -4
-8 -2 -4 5 9 13 26 5 25 -12z"/>
<path d="M2015 6160 c-3 -5 -1 -10 4 -10 6 0 11 5 11 10 0 6 -2 10 -4 10 -3 0
-8 -4 -11 -10z"/>
<path d="M5831 6124 c-1 -6 5 -17 12 -23 10 -8 14 -7 14 4 0 8 -4 12 -8 9 -4
-2 -10 2 -12 8 -4 8 -6 9 -6 2z"/>
<path d="M1880 6060 c-9 -6 -10 -10 -3 -10 6 0 15 5 18 10 8 12 4 12 -15 0z"/>
<path d="M1744 5998 c1 -7 -5 -20 -13 -30 -11 -13 -17 -15 -24 -5 -6 9 -8 8
-4 -3 5 -15 -17 -43 -26 -34 -3 3 -7 1 -11 -4 -3 -5 1 -9 9 -9 8 0 33 20 57
45 24 25 38 42 31 38 -6 -3 -14 -1 -16 4 -3 6 -4 5 -3 -2z"/>
<path d="M1566 5895 c-9 -26 -7 -32 5 -12 6 10 9 21 6 23 -2 3 -7 -2 -11 -11z"/>
<path d="M5984 5896 c1 -8 5 -18 8 -22 4 -3 5 1 4 10 -1 8 -5 18 -8 22 -4 3
-5 -1 -4 -10z"/>
<path d="M1210 5886 c0 -2 7 -7 16 -10 8 -3 12 -2 9 4 -6 10 -25 14 -25 6z"/>
<path d="M1275 5800 c3 -5 8 -10 11 -10 2 0 4 5 4 10 0 6 -5 10 -11 10 -5 0
-7 -4 -4 -10z"/>
<path d="M306 5342 c-3 -5 1 -9 9 -9 8 0 12 4 9 9 -3 4 -7 8 -9 8 -2 0 -6 -4
-9 -8z"/>
<path d="M350 5021 c0 -6 5 -11 11 -11 5 0 7 -6 3 -12 -4 -7 2 -4 14 6 12 11
19 22 16 25 -4 3 -9 0 -11 -7 -4 -10 -8 -10 -19 -1 -10 8 -14 8 -14 0z"/>
<path d="M225 4915 c2 -10 -27 -43 -33 -37 -1 2 -8 1 -15 -1 -6 -3 -2 -4 11
-4 12 1 33 12 45 26 12 13 17 21 10 18 -6 -4 -13 -4 -16 0 -2 5 -3 3 -2 -2z"/>
<path d="M35 4761 c-3 -5 -2 -12 3 -15 5 -3 9 1 9 9 0 17 -3 19 -12 6z"/>
<path d="M95 2660 c3 -5 8 -10 11 -10 2 0 4 5 4 10 0 6 -5 10 -11 10 -5 0 -7
-4 -4 -10z"/>
<path d="M5990 2659 c0 -5 5 -7 10 -4 6 3 10 8 10 11 0 2 -4 4 -10 4 -5 0 -10
-5 -10 -11z"/>
<path d="M6045 2609 c-4 -6 -5 -12 -2 -15 2 -3 7 2 10 11 7 17 1 20 -8 4z"/>
<path d="M5546 2541 c-4 -5 -2 -12 3 -15 5 -4 12 -2 15 3 4 5 2 12 -3 15 -5 4
-12 2 -15 -3z"/>
<path d="M5526 2511 c-4 -5 -2 -12 3 -15 5 -4 12 -2 15 3 4 5 2 12 -3 15 -5 4
-12 2 -15 -3z"/>
<path d="M5496 2491 c-4 -5 -2 -12 3 -15 5 -4 12 -2 15 3 4 5 2 12 -3 15 -5 4
-12 2 -15 -3z"/>
<path d="M6230 2220 c0 -5 7 -10 16 -10 8 0 12 5 9 10 -3 6 -10 10 -16 10 -5
0 -9 -4 -9 -10z"/>
<path d="M346 2210 c5 -8 9 -18 9 -22 0 -3 3 -9 7 -13 3 -4 5 0 4 9 -1 9 -8
22 -16 29 -10 10 -11 9 -4 -3z"/>
<path d="M6230 2120 c0 -5 5 -10 11 -10 5 0 7 5 4 10 -3 6 -8 10 -11 10 -2 0
-4 -4 -4 -10z"/>
<path d="M236 2007 c3 -10 9 -15 12 -12 3 3 0 11 -7 18 -10 9 -11 8 -5 -6z"/>
<path d="M410 1941 c0 -6 4 -13 10 -16 6 -3 7 1 4 9 -7 18 -14 21 -14 7z"/>
<path d="M5250 1940 c0 -5 5 -10 11 -10 5 0 7 5 4 10 -3 6 -8 10 -11 10 -2 0
-4 -4 -4 -10z"/>
<path d="M307 1919 c7 -7 15 -10 18 -7 3 3 -2 9 -12 12 -14 6 -15 5 -6 -5z"/>
<path d="M5195 1900 c3 -5 8 -10 11 -10 2 0 4 5 4 10 0 6 -5 10 -11 10 -5 0
-7 -4 -4 -10z"/>
<path d="M5150 1881 c0 -6 4 -13 10 -16 6 -3 7 1 4 9 -7 18 -14 21 -14 7z"/>
<path d="M310 1846 c0 -2 7 -7 16 -10 8 -3 12 -2 9 4 -6 10 -25 14 -25 6z"/>
<path d="M1867 1819 c7 -7 15 -10 18 -7 3 3 -2 9 -12 12 -14 6 -15 5 -6 -5z"/>
<path d="M5095 1731 c-3 -5 -2 -12 3 -15 5 -3 9 1 9 9 0 17 -3 19 -12 6z"/>
<path d="M1595 1689 c-4 -6 -5 -12 -2 -15 2 -3 7 2 10 11 7 17 1 20 -8 4z"/>
<path d="M1695 1660 c3 -5 8 -10 11 -10 2 0 4 5 4 10 0 6 -5 10 -11 10 -5 0
-7 -4 -4 -10z"/>
<path d="M2170 1564 c0 -8 5 -12 10 -9 6 4 8 11 5 16 -9 14 -15 11 -15 -7z"/>
<path d="M2194 1526 c3 -22 22 -40 30 -28 3 5 -3 17 -13 27 -17 15 -19 15 -17
1z"/>
<path d="M2294 1421 c0 -12 5 -17 15 -13 10 4 12 1 6 -8 -6 -9 -4 -11 4 -6 9
6 8 13 -5 27 -21 23 -20 23 -20 0z"/>
<path d="M2500 1221 c0 -5 7 -12 16 -15 14 -5 15 -4 4 9 -14 17 -20 19 -20 6z"/>
<path d="M2555 1120 c3 -5 8 -10 11 -10 2 0 4 5 4 10 0 6 -5 10 -11 10 -5 0
-7 -4 -4 -10z"/>
<path d="M3050 556 c0 -2 8 -10 18 -17 15 -13 16 -12 3 4 -13 16 -21 21 -21
13z"/>
</g>
</svg>
